HIERARCHY
ROOT SpineBase
{
  OFFSET 0.000000 0.000000 0.000000
  CHANNELS 6 Xposition Yposition Zposition Zrotation Xrotation Yrotation
  JOINT SpineMid
  {
    OFFSET 0.000000 33.307929 0.000000
    CHANNELS 3 Zrotation Xrotation Yrotation
    JOINT SpineShoulder
    {
      OFFSET 0.270910 24.954639 -0.946814
      CHANNELS 3 Zrotation Xrotation Yrotation
      JOINT Neck
      {
        OFFSET 0.011449 8.255658 -0.665075
        CHANNELS 3 Zrotation Xrotation Yrotation
        JOINT Head
        {
          OFFSET 4.651358 13.052890 5.977903
          CHANNELS 3 Zrotation Xrotation Yrotation
          End Site
          {
            OFFSET 0 0 0
          }
        }
      }
      JOINT ShoulderLeft
      {
        OFFSET 1.961466 -5.481529 -15.087880
        CHANNELS 3 Zrotation Xrotation Yrotation
        JOINT ElbowLeft
        {
          OFFSET 9.400868 -27.797488 -7.384496
          CHANNELS 3 Zrotation Xrotation Yrotation
          JOINT WristLeft
          {
            OFFSET 12.315785 -21.364759 -1.897796
            CHANNELS 3 Zrotation Xrotation Yrotation
            JOINT HandLeft
            {
              OFFSET 4.334647 -6.978671 1.278600
              CHANNELS 3 Zrotation Xrotation Yrotation
              JOINT HandTipLeft
              {
                OFFSET 1.920066 -7.277329 2.175423
                CHANNELS 3 Zrotation Xrotation Yrotation
                End Site
                {
                  OFFSET 0 0 0
                }
              }
              JOINT ThumbLeft
              {
                OFFSET -0.702917 -3.432751 -1.976401
                CHANNELS 3 Zrotation Xrotation Yrotation
                End Site
                {
                  OFFSET 0 0 0
                }
              }
            }
          }
        }
      }
      JOINT ShoulderRight
      {
        OFFSET 7.269211 -6.327971 15.503668
        CHANNELS 3 Zrotation Xrotation Yrotation
        JOINT ElbowRight
        {
          OFFSET 4.054885 -20.120932 -28.151883
          CHANNELS 3 Zrotation Xrotation Yrotation
          JOINT WristRight
          {
            OFFSET 7.488221 -28.699135 -16.567545
            CHANNELS 3 Zrotation Xrotation Yrotation
            JOINT HandRight
            {
              OFFSET 5.067286 -1.670314 4.699056
              CHANNELS 3 Zrotation Xrotation Yrotation
              JOINT HandTipRight
              {
                OFFSET 3.155494 -7.153883 0.396727
                CHANNELS 3 Zrotation Xrotation Yrotation
                End Site
                {
                  OFFSET 0 0 0
                }
              }
              JOINT ThumbRight
              {
                OFFSET 2.249605 2.598905 -3.340716
                CHANNELS 3 Zrotation Xrotation Yrotation
                End Site
                {
                  OFFSET 0 0 0
                }
              }
            }
          }
        }
      }
    }
  }
  JOINT HipLeft
  {
    OFFSET -0.704247 1.350814 -9.005824
    CHANNELS 3 Zrotation Xrotation Yrotation
    JOINT KneeLeft
    {
      OFFSET 21.816725 -30.306502 -4.163856
      CHANNELS 3 Zrotation Xrotation Yrotation
      JOINT AnkleLeft
      {
        OFFSET -1.997922 -42.404525 1.824363
        CHANNELS 3 Zrotation Xrotation Yrotation
        JOINT FootLeft
        {
          OFFSET 9.559342 -3.458346 -4.167257
          CHANNELS 3 Zrotation Xrotation Yrotation
          End Site
          {
            OFFSET 0 0 0
          }
        }
      }
    }
  }
  JOINT HipRight
  {
    OFFSET 1.384702 0.252103 1.497099
    CHANNELS 3 Zrotation Xrotation Yrotation
    JOINT KneeRight
    {
      OFFSET 12.419405 -37.795222 -9.361298
      CHANNELS 3 Zrotation Xrotation Yrotation
      JOINT AnkleRight
      {
        OFFSET -5.306704 -36.496155 7.736170
        CHANNELS 3 Zrotation Xrotation Yrotation
        JOINT FootRight
        {
          OFFSET 9.479205 -2.198319 -10.557772
          CHANNELS 3 Zrotation Xrotation Yrotation
          End Site
          {
            OFFSET 0 0 0
          }
        }
      }
    }
  }
}
MOTION
Frames: 14
Frame Time: 0.033333
-26.867672 81.645227 323.275794 -0.000000 0.000000 -78.751110 -0.000000 0.000000 78.751110 -0.000000 0.000000 0.000000 -0.000000 0.000000 0.000000 0.000000 0.000000 0.000000 -0.000000 0.000000 0.000000 -0.000000 0.000000 0.000000 -0.000000 0.000000 0.000000 -0.000000 0.000000 0.000000 0.000000 0.000000 0.000000 0.000000 0.000000 0.000000 -0.000000 0.000000 0.000000 -0.000000 0.000000 0.000000 -0.000000 0.000000 0.000000 -0.000000 0.000000 0.000000 0.000000 0.000000 0.000000 0.000000 0.000000 0.000000 -0.000000 0.000000 78.751110 -0.000000 0.000000 0.000000 -0.000000 0.000000 0.000000 0.000000 0.000000 0.000000 -0.000000 0.000000 78.751110 -0.000000 0.000000 0.000000 -0.000000 0.000000 0.000000 0.000000 0.000000 0.000000
-26.616089 81.769627 323.034056 0.211105 0.199276 -78.822609 0.154574 -0.245730 78.822574 -0.000000 0.000000 0.000000 -0.000000 0.000000 0.000000 0.000000 0.000000 0.000000 -0.000000 0.000000 0.000000 0.138783 -0.850116 -0.501337 -5.287700 -3.066878 -3.026591 6.648152 5.077948 3.848947 0.000000 0.000000 0.000000 0.000000 0.000000 0.000000 -0.000000 0.000000 0.000000 -0.000000 0.000000 0.000000 -0.207065 -2.395998 -7.448306 1.220142 1.501994 7.000047 0.000000 0.000000 0.000000 0.000000 0.000000 0.000000 0.154574 -0.245730 78.822574 -0.000000 0.000000 0.000000 2.801050 1.834057 1.517371 0.000000 0.000000 0.000000 -0.241906 -1.808466 79.244369 3.066401 -0.319439 -0.081856 -3.986462 -2.655359 -0.909847 0.000000 0.000000 0.000000
-26.387072 81.866682 322.826545 0.362084 0.360559 -78.811821 0.283450 -0.425162 78.811733 -0.000000 0.000000 0.000000 0.172991 -0.939809 0.258207 0.000000 0.000000 0.000000 -0.000000 0.000000 0.000000 0.137709 -1.587951 -0.926241 -10.381572 -5.718143 -6.085616 12.737024 10.266007 6.889133 0.000000 0.000000 0.000000 0.000000 0.000000 0.000000 -0.000000 0.000000 0.000000 -0.000000 0.000000 0.000000 -0.716847 -4.249444 -13.699757 2.337905 2.657799 12.675659 0.000000 0.000000 0.000000 0.000000 0.000000 0.000000 0.283450 -0.425162 78.811733 0.256647 -1.070288 0.063849 4.088947 3.986754 2.276801 0.000000 0.000000 0.000000 -0.368469 -3.345938 79.561581 5.722877 -0.502659 -0.120089 -7.564653 -4.974727 -1.639916 0.000000 0.000000 0.000000
-26.180621 81.936392 322.653261 0.452611 0.483511 -78.718650 0.385626 -0.538453 78.718552 -0.000000 0.000000 0.000000 0.619428 -1.017195 0.084805 0.000000 0.000000 0.000000 -0.000000 0.000000 0.000000 -0.000948 -2.211265 -1.276926 -14.924669 -7.765671 -8.898403 17.933554 15.024352 9.066086 0.000000 0.000000 0.000000 0.000000 0.000000 0.000000 -0.000000 0.000000 0.000000 -0.000000 0.000000 0.000000 -1.379235 -5.552889 -18.747297 3.309937 3.372255 17.074483 0.000000 0.000000 0.000000 0.000000 0.000000 0.000000 -0.344778 -1.006146 79.242675 1.129869 -1.888833 -0.436431 4.448641 4.695107 2.744949 0.000000 0.000000 0.000000 -0.393692 -4.618130 79.713166 7.955531 -0.535309 -0.135319 -10.619755 -6.920863 -2.134323 0.000000 0.000000 0.000000
-25.996737 81.978758 322.514205 0.482601 0.567955 -78.539936 -0.095273 0.092977 78.551181 -0.554962 -0.679669 -0.016965 1.303964 -0.836019 -0.291936 0.000000 0.000000 0.000000 -0.000000 0.000000 0.000000 -0.275255 -2.718619 -1.554867 -18.618171 -9.148904 -11.215810 21.958714 18.870274 10.481097 0.000000 0.000000 0.000000 0.000000 0.000000 0.000000 -0.000000 0.000000 0.000000 -0.000000 0.000000 0.000000 -2.090941 -6.351537 -22.672980 4.059616 3.594344 20.353034 0.000000 0.000000 0.000000 0.000000 0.000000 0.000000 -0.235240 -2.215726 79.024238 2.666242 -1.600483 -0.381563 3.948434 4.708602 2.964842 0.000000 0.000000 0.000000 -0.327094 -5.631486 79.703029 9.752802 -0.406418 -0.143722 -13.062255 -8.478585 -2.346936 0.000000 0.000000 0.000000
-25.835418 81.993778 322.409375 0.452207 0.613863 -78.269402 -0.112975 0.099378 78.278855 -0.526701 -0.744573 -0.015318 2.226001 -0.404161 -0.875163 0.000000 0.000000 0.000000 -0.000000 0.000000 0.000000 -0.683645 -3.109228 -1.760754 -21.268245 -9.899694 -12.868223 24.619151 21.470157 11.314178 0.000000 0.000000 0.000000 0.000000 0.000000 0.000000 -0.000000 0.000000 0.000000 -0.000000 0.000000 0.000000 -2.793744 -6.701558 -25.584150 4.497760 3.309732 22.692312 0.000000 0.000000 0.000000 0.000000 0.000000 0.000000 -0.015354 -3.847345 78.601636 4.772677 -0.843764 -0.238732 2.575259 4.028632 2.951477 0.000000 0.000000 0.000000 -0.174259 -6.392589 79.528944 11.105746 -0.107716 -0.155934 -14.831454 -9.647683 -2.245346 0.000000 0.000000 0.000000
-25.702848 81.968737 322.430705 0.282746 0.542883 -77.568278 -0.179252 0.142899 77.573564 -0.383799 -0.748650 -0.008939 3.282920 0.613881 -1.753727 0.000000 0.000000 0.000000 -0.770294 -0.612242 -0.006562 -0.939935 -2.803444 -1.872939 -22.047879 -9.939605 -13.612839 24.804103 21.884892 11.599405 0.000000 0.000000 0.000000 0.000000 0.000000 0.000000 -0.000000 0.000000 0.000000 -0.000000 0.000000 0.000000 -4.390296 -5.742470 -28.672780 1.297775 -1.706024 24.629310 0.000000 0.000000 0.000000 0.000000 0.000000 0.000000 0.486341 -6.217174 77.430677 7.387873 1.167352 0.117684 0.108241 2.468876 3.928325 0.000000 0.000000 0.000000 0.032200 -6.618312 78.795861 10.917805 -0.014131 -0.217113 -14.735234 -9.786474 -1.067337 0.000000 0.000000 0.000000
-25.562154 81.849170 322.403943 0.105948 0.507820 -76.986975 0.470923 -0.217573 76.987400 -0.605984 0.684345 -0.046170 5.479185 1.069169 -2.843046 0.000000 0.000000 0.000000 -0.587894 -1.372909 0.117078 -1.095671 -2.846279 -1.998501 -25.079726 -9.920223 -14.961666 27.055457 23.894322 12.264839 0.000000 0.000000 0.000000 0.000000 0.000000 0.000000 0.606578 -0.683818 0.053409 -0.748490 0.895523 0.669725 -3.204178 -8.140172 -30.840395 0.313309 -0.114300 26.279114 0.000000 0.000000 0.000000 0.000000 0.000000 0.000000 0.783851 -8.571457 76.521232 10.957531 2.864066 0.299235 -2.525974 0.454573 2.304027 0.000000 0.000000 0.000000 0.359467 -6.829306 78.155164 11.254239 0.732123 -0.251256 -15.571884 -10.806715 2.254335 0.000000 0.000000 0.000000
-25.468894 81.811241 322.364496 -0.102363 0.466799 -76.356889 0.477773 -0.010629 76.357350 -0.882467 0.650983 -0.067012 7.361194 2.244798 -4.048094 0.000000 0.000000 0.000000 -0.430415 -1.325949 0.176074 -1.609923 -2.910197 -2.029580 -24.094743 -8.633176 -13.667538 24.729980 20.306268 11.365765 0.000000 0.000000 0.000000 0.000000 0.000000 0.000000 0.883284 -0.649873 0.077035 -0.834149 1.022429 0.753312 -2.638513 -8.673812 -30.149525 -1.394811 0.335255 25.966331 0.000000 0.000000 0.000000 0.000000 0.000000 0.000000 1.035087 -10.855456 75.552026 14.646781 4.824249 0.375290 -9.564803 -4.519515 -2.748998 0.000000 0.000000 0.000000 0.484441 -6.256123 77.396823 10.683151 1.006868 -0.188457 -15.439527 -10.969820 3.792941 0.000000 0.000000 0.000000
-25.407570 81.745631 322.304238 -0.280845 0.400872 -75.890459 0.457241 0.174651 75.890745 -1.090874 0.583704 -0.083169 9.243771 3.177980 -5.221687 0.000000 0.000000 0.000000 -0.305967 -1.207218 0.234130 -1.840769 -2.759936 -1.929747 -22.931420 -7.388509 -12.283700 23.406724 19.606661 11.074385 0.000000 0.000000 0.000000 0.000000 0.000000 0.000000 0.601341 0.224209 0.932175 0.477277 -0.814088 -0.836044 -5.124846 -4.071215 -27.429979 2.843129 0.541241 24.792782 0.000000 0.000000 0.000000 0.000000 0.000000 0.000000 1.184735 -12.779927 74.798778 17.764561 6.590546 0.344496 -21.911193 -10.672528 -9.873915 0.000000 0.000000 0.000000 1.183386 -6.634589 76.768608 11.849347 3.026689 -0.193017 -15.814163 -11.670204 -0.347986 0.000000 0.000000 0.000000
-25.360158 81.680605 322.234339 -0.431157 0.291896 -75.457362 0.390808 0.344049 75.457287 -1.211177 0.489202 -0.093114 10.821695 3.839647 -6.205235 0.000000 0.000000 0.000000 0.324832 -0.968403 0.166080 -2.842706 -2.704399 -1.691290 -21.615623 -7.148726 -11.916283 23.751307 20.159660 11.128492 0.000000 0.000000 0.000000 0.000000 0.000000 0.000000 0.349986 2.146406 1.794706 2.239991 -3.875018 -2.747864 -10.130080 2.901498 -23.238479 9.724078 -0.634684 23.400775 0.000000 0.000000 0.000000 0.000000 0.000000 0.000000 1.174472 -14.111192 74.164810 19.839035 7.639890 0.295387 -37.150478 -15.321147 -18.479881 0.000000 0.000000 0.000000 1.980155 -7.542063 76.216141 14.158974 5.842127 -0.346640 -16.126537 -12.151306 -3.922444 0.000000 0.000000 0.000000
-25.320832 81.543184 322.152212 -0.504046 0.169148 -75.240660 0.291980 0.444323 75.240272 -1.223053 0.364227 -0.095173 11.810605 4.293270 -6.874682 0.000000 0.000000 0.000000 1.223681 -0.362112 0.102928 -4.144830 -2.957360 -1.477998 -20.079497 -7.660706 -12.146646 22.539556 21.293212 11.496176 0.000000 0.000000 0.000000 0.000000 0.000000 0.000000 -0.046903 4.241474 2.700441 4.233490 -8.199820 -4.978354 -18.587191 13.000715 -16.391111 22.529892 -3.458775 22.467286 0.000000 0.000000 0.000000 0.000000 0.000000 0.000000 1.041864 -14.634232 73.888047 20.167436 7.385385 0.345257 -44.245505 -16.406589 -17.808780 0.000000 0.000000 0.000000 3.004230 -9.081487 75.923146 17.409401 9.288763 -0.747916 -16.081973 -12.381828 -8.343697 0.000000 0.000000 0.000000
-25.953995 81.292646 322.593382 -1.057078 -0.290960 -75.865550 0.011613 0.011112 75.826419 -0.551507 0.113184 -0.088863 12.857663 4.791806 -7.291618 0.000000 0.000000 0.000000 2.682191 0.103310 -0.195104 -5.425608 -2.834929 -1.101050 -19.952756 -7.542704 -12.110403 21.758763 22.043507 11.792359 0.000000 0.000000 0.000000 0.000000 0.000000 0.000000 -0.680097 7.601750 4.550570 7.098319 -14.656218 -8.302158 -30.559024 22.674798 -4.696708 31.446006 -9.373935 21.138233 0.000000 0.000000 0.000000 0.000000 0.000000 0.000000 0.475135 -12.514121 74.879049 19.211496 6.861809 0.123764 -57.049454 -18.210780 -24.382693 0.000000 0.000000 0.000000 3.506975 -9.123977 76.430997 19.980195 12.123456 -1.168849 -15.805445 -12.693606 -13.057727 0.000000 0.000000 0.000000
-25.752365 81.262662 322.394336 -0.978099 -0.373991 -75.704718 -0.053513 0.150215 75.672933 -0.640091 0.083426 -0.087738 13.514596 4.817371 -7.720068 0.000000 0.000000 0.000000 3.908808 0.337041 -0.490911 -6.964118 -3.229196 -0.919445 -19.654885 -7.820207 -12.341297 20.952685 22.746546 12.127657 0.000000 0.000000 0.000000 0.000000 0.000000 0.000000 -0.875148 8.927569 4.855447 8.581640 -18.867028 -9.719250 -43.666110 29.300039 8.402484 40.058184 -16.706703 20.347096 0.000000 0.000000 0.000000 0.000000 0.000000 0.000000 0.481971 -13.289612 74.579528 18.832615 5.755348 0.368548 -62.121754 -19.381202 -17.994776 0.000000 0.000000 0.000000 5.086903 -11.882637 76.308362 24.229452 16.097203 -2.208997 -18.136426 -15.396518 -20.115085 0.000000 0.000000 0.000000
